:SAMPLES-PER-SECOND 30
:FULLY-SPECIFIED
:DEGREES
252
root  5.636177664 33.9742225 2.330355569 -14.93200684 -51.56500244 -5.893005371
lowerback  6.470039845 2.455379963 -6.631859779
upperback  2.056770086 2.718209982 -2.963959932
thorax  -1.661239982 1.330760002 0.4357329905
lowerneck  -7.176780224 6.502880096 -5.607470036
upperneck  18.10400009 7.563059807 11.89229965
head  5.905879974 4.203080177 5.225160122
lclavicle  0 -9.442270133e-015 7.951389973e-016
lhumerus  30.39290047 -20.09519958 76.46430206
lradius  1.126635826e-031 -3.346570745e-031 108.6060028
lwrist  0 -0 10.05010033
lhand  -1.496451383e-031 -27.76390076 20.11240005
lfingers  90 7.125020027 -90
lthumb  89.89689403 5.08795885 91.16245106
rclavicle  0 -9.442270133e-015 7.951389973e-016
rhumerus  9.748660088 8.4270401 -79.13710022
rradius  -1.845533329e-031 3.010456904e-031 121.5100021
rwrist  7.062250077e-031 3.531125038e-031 -41.62049866
rhand  -7.920061211e-032 -33.2840004 9.303460121
rfingers  -90 -7.125020027 -90
rthumb  -92.93752616 -24.25625642 -97.11982154
rfemur  0.5720750093 19.25079918 7.729909897
rtibia  -0 0 72.51470184
rfoot  -4.56821997e-032 -14.93470001 4.485340118
rtoes  5.373923086 19.29304026 -105.8922705
lfemur  -13.32509995 -1.770409942 8.240880013
ltibia  -0 0 66.34300232
lfoot  4.83550005e-032 -24.10300064 -1.450299978
ltoes  -4.250644065 -19.5611806 -102.515957
253
root  5.666333296 33.8637765 2.373422225 -14.42199707 -51.05700684 -6.184997559
lowerback  6.971899986 2.304519892 -7.081429958
upperback  1.976500034 2.43204999 -2.94385004
thorax  -2.02621007 1.19825995 0.7079139948
lowerneck  -7.142310143 6.508150101 -5.453310013
upperneck  17.47669983 7.629990101 11.66889954
head  5.716889858 4.227099895 5.101449966
lclavicle  0 -9.442270133e-015 7.951389973e-016
lhumerus  30.31340027 -20.37070084 76.11979675
lradius  1.199082656e-031 -3.321301676e-031 109.8509979
lwrist  -7.062250077e-031 -0 9.813599586
lhand  -1.496451383e-031 -27.76390076 20.11240005
lfingers  90 7.125020027 -90
lthumb  89.89689403 5.08795885 91.16245106
rclavicle  0 -9.442270133e-015 7.951389973e-016
rhumerus  10.04920006 8.278360367 -79.42289734
rradius  -1.862003598e-031 3.000297758e-031 121.8239975
rwrist  0 4.413906298e-031 -42.11420059
rhand  -7.920061211e-032 -33.2840004 9.303460121
rfingers  -90 -7.125020027 -90
rthumb  -92.93752616 -24.25625642 -97.11982154
rfemur  0.3348880112 18.89959908 7.763989925
rtibia  -0 0 72.89399719
rfoot  -4.579677689e-032 -15.4630003 4.346560001
rtoes  5.373923086 19.29304026 -105.8922705
lfemur  -14.04450035 -1.329370022 8.48211956
ltibia  -0 0 66.72440338
lfoot  4.858973006e-032 -24.71439934 -1.98202002
ltoes  -4.250644065 -19.5611806 -102.515957
254
root  5.704488904 33.78266763 2.40097778 -13.78599548 -50.38699341 -6.656997681
lowerback  7.559289932 2.148629904 -7.399849892
upperback  1.984069943 2.14218998 -2.886899948
thorax  -2.339519978 1.062450051 0.949755013
lowerneck  -7.073329926 6.454100132 -5.295080185
upperneck  16.78800011 7.610330105 11.47679996
head  5.510220051 4.209969997 4.980350018
lclavicle  0 -9.442270133e-015 7.951389973e-016
lhumerus  30.1359005 -20.6067009 76.01499939
lradius  1.269181227e-031 -3.295151446e-031 111.0650024
lwrist  -7.062250077e-031 -1.765562519e-031 9.221159935
lhand  -1.496451383e-031 -27.76390076 20.11240005
lfingers  90 7.125020027 -90
lthumb  89.89689403 5.08795885 91.16245106
rclavicle  0 -9.442270133e-015 7.951389973e-016
rhumerus  10.32940006 7.975709915 -79.54709625
rradius  -1.883790317e-031 2.986666717e-031 122.2409973
rwrist  1.412450015e-030 2.648343779e-031 -42.71960068
rhand  -7.920061211e-032 -33.2840004 9.303460121
rfingers  -90 -7.125020027 -90
rthumb  -92.93752616 -24.25625642 -97.11982154
rfemur  0.2014099956 18.34869957 7.933919907
rtibia  -0 0 73.16680145
rfoot  -4.59024593e-032 -15.93290043 4.046649933
rtoes  5.373923086 19.29304026 -105.8922705
lfemur  -14.88500023 -1.178640008 8.881699562
ltibia  -0 0 67.0821991
lfoot  7.301132377e-032 -24.92959976 -2.831870079
ltoes  -4.250644065 -19.5611806 -102.515957
255
root  5.758799906 33.72777804 2.409911156 -12.76899719 -49.52000427 -7.468002319
lowerback  7.944980145 2.03956008 -7.13929987
upperback  2.212709904 1.989189982 -2.946150064
thorax  -2.294509888 0.9786120057 0.7522249818
lowerneck  -7.076660156 6.277890205 -5.099380016
upperneck  15.93089962 7.423379898 11.33479977
head  5.278940201 4.117209911 4.859829903
lclavicle  0 -9.442270133e-015 7.951389973e-016
lhumerus  30.31879997 -21.1291008 75.87660217
lradius  1.33380367e-031 -3.269527765e-031 112.1930008
lwrist  -1.412450015e-030 -1.765562519e-031 8.698439598
lhand  -1.496451383e-031 -27.76390076 20.11240005
lfingers  90 7.125020027 -90
lthumb  89.89689403 5.08795885 91.16245106
rclavicle  0 -9.442270133e-015 7.951389973e-016
rhumerus  10.66800022 7.25191021 -79.72350311
rradius  -1.911025899e-031 2.969313734e-031 122.7649994
rwrist  7.062250077e-031 5.296687558e-031 -43.1128006
rhand  -7.920061211e-032 -33.2840004 9.303460121
rfingers  -90 -7.125020027 -90
rthumb  -92.93752616 -24.25625642 -97.11982154
rfemur  -0.01379030012 17.51420021 8.334269524
rtibia  -0 0 73.35299683
rfoot  -4.601038533e-032 -16.39710045 3.475869894
rtoes  5.373923086 19.29304026 -105.8922705
lfemur  -16.13739967 -1.388479948 9.507069588
ltibia  -0 0 67.4437027
lfoot  4.863000605e-032 -24.8173008 -3.801870108
ltoes  -4.250644065 -19.5611806 -102.515957
256
root  5.824022218 33.68622187 2.396111038 -11.28199768 -48.57000732 -8.690994263
lowerback  8.434530258 1.886970043 -6.816919804
upperback  2.310189962 1.781159997 -2.726749897
thorax  -2.448719978 0.8779979944 0.8101450205
lowerneck  -6.866740227 6.153540134 -5.174369812
upperneck  15.1899004 7.327879906 11.19540024
head  5.026909828 4.048160076 4.784669876
lclavicle  0 -9.442270133e-015 7.951389973e-016
lhumerus  30.09399986 -21.4701004 76.18370056
lradius  1.398475208e-031 -3.242392809e-031 113.3310013
lwrist  -7.062250077e-031 -1.765562519e-031 8.663269997
lhand  -1.496451383e-031 -27.76390076 20.11240005
lfingers  90 7.125020027 -90
lthumb  89.89689403 5.08795885 91.16245106
rclavicle  0 -9.442270133e-015 7.951389973e-016
rhumerus  10.6498003 6.790770054 -79.67510223
rradius  -1.948753048e-031 2.944691087e-031 123.4960022
rwrist  0 3.531125038e-031 -43.44540024
rhand  -7.920061211e-032 -33.2840004 9.303460121
rfingers  -90 -7.125020027 -90
rthumb  -92.93752616 -24.25625642 -97.11982154
rfemur  -0.3735570014 16.57259941 9.106690407
rtibia  -0 0 73.47429657
rfoot  -6.913016004e-032 -16.71680069 2.616379976
rtoes  5.373923086 19.29304026 -105.8922705
lfemur  -17.77589989 -1.613690019 10.49680042
ltibia  -0 0 67.79270172
lfoot  4.849153661e-032 -24.46109962 -4.912139893
ltoes  -4.250644065 -19.5611806 -102.515957
257
root  5.892888768 33.65888821 2.365377757 -9.800994873 -47.67199707 -9.791000366
lowerback  8.801099777 1.856109977 -6.536469936
upperback  2.475630045 1.746549964 -2.548340082
thorax  -2.475059986 0.8581470251 0.8358579874
lowerneck  -6.841320038 5.942580223 -5.028049946
upperneck  14.57479954 7.081280231 11.05309963
head  4.868529797 3.921550035 4.681819916
lclavicle  0 -9.442270133e-015 7.951389973e-016
lhumerus  30.02260017 -21.94569969 76.49289703
lradius  1.452659274e-031 -3.218481796e-031 114.2919998
lwrist  -7.062250077e-031 -0 8.974499702
lhand  -1.496451383e-031 -27.76390076 20.11240005
lfingers  90 7.125020027 -90
lthumb  89.89689403 5.08795885 91.16245106
rclavicle  0 -9.442270133e-015 7.951389973e-016
rhumerus  10.54329967 6.168039799 -79.62210083
rradius  -1.996952032e-031 2.912220222e-031 124.439003
rwrist  7.062250077e-031 5.296687558e-031 -43.62030029
rhand  -7.920061211e-032 -33.2840004 9.303460121
rfingers  -90 -7.125020027 -90
rthumb  -92.93752616 -24.25625642 -97.11982154
rfemur  -0.8157659769 15.81519985 9.909079552
rtibia  -0 0 73.50990295
rfoot  -4.616149858e-032 -17.02289963 1.770499945
rtoes  5.373923086 19.29304026 -105.8922705
lfemur  -19.41390038 -1.591529965 11.42889977
ltibia  -0 0 68.05660248
lfoot  9.669701828e-032 -24.08580017 -5.987299919
ltoes  -4.250644065 -19.5611806 -102.515957
258
root  5.957511091 33.66733461 2.32773334 -8.569000244 -46.7480011 -10.44099426
lowerback  9.059729576 1.921049953 -6.430590153
upperback  2.66899991 1.826830029 -2.553610086
thorax  -2.418580055 0.891767025 0.7584879994
lowerneck  -6.92784977 5.683889866 -4.530139923
upperneck  14.07909966 6.725749969 10.86009979
head  4.790579796 3.758460045 4.512189865
lclavicle  0 -9.442270133e-015 7.951389973e-016
lhumerus  29.99180031 -22.58289909 76.6984024
lradius  1.494886666e-031 -3.199087041e-031 115.0459976
lwrist  -7.062250077e-031 -0 9.257069588
lhand  -1.496451383e-031 -27.76390076 20.11240005
lfingers  90 7.125020027 -90
lthumb  89.89689403 5.08795885 91.16245106
rclavicle  0 -9.442270133e-015 7.951389973e-016
rhumerus  10.30230045 5.396910191 -79.74919891
rradius  -2.049832256e-031 2.875244643e-031 125.4860001
rwrist  7.062250077e-031 5.296687558e-031 -43.53749847
rhand  -7.920061211e-032 -33.2840004 9.303460121
rfingers  -90 -7.125020027 -90
rthumb  -92.93752616 -24.25625642 -97.11982154
rfemur  -1.280900002 15.13269997 10.45189953
rtibia  -0 0 73.40750122
rfoot  -5.202122488e-032 -17.34210014 0.7974179983
rtoes  5.373923086 19.29304026 -105.8922705
lfemur  -20.98360062 -1.407570004 11.96119976
ltibia  -0 0 68.16609955
lfoot  -0 -23.7696991 -6.743209839
ltoes  -4.250644065 -19.5611806 -102.515957
